<svg xmlns="http://www.w3.org/2000/svg"  viewBox="0 0 80 80" width="80px" height="80px"><path fill="#f78f8f" d="M40,77.5C19.322,77.5,2.5,60.678,2.5,40S19.322,2.5,40,2.5S77.5,19.322,77.5,40S60.678,77.5,40,77.5 z"/><path fill="#c74343" d="M40,3c9.933,0,19.238,3.835,26.202,10.798S77,30.067,77,40s-3.835,19.238-10.798,26.202 C59.238,73.165,49.933,77,40,77s-19.238-3.835-26.202-10.798C6.835,59.238,3,49.933,3,40s3.835-19.238,10.798-26.202S30.067,3,40,3 M40,2C18.91,2,2,18.91,2,40s16.91,38,38,38s38-16.91,38-38S61.09,2,40,2L40,2z"/><path fill="#f4b5b5" d="M72.897 59.046L40 40l19.046 32.897C64.472 69.743 69.743 64.472 72.897 59.046zM7.103 20.954L40 40 20.954 7.103C15.528 10.257 10.257 15.528 7.103 20.954z"/><path fill="#f76d6d" d="M11.396 14.958c-.51.583-1.001 1.182-1.474 1.796-.069.089-.134.181-.201.27-.949 1.252-1.827 2.562-2.618 3.931l.836.484c1.595-2.761 3.551-5.331 5.86-7.64s4.879-4.265 7.64-5.86l-.484-.836c-.002.001-.004.003-.006.004-1.365.789-2.671 1.664-3.92 2.61-.091.069-.185.136-.276.206-.613.473-1.211.963-1.793 1.472-.056.049-.109.1-.164.149-1.15 1.018-2.237 2.105-3.255 3.256C11.493 14.853 11.443 14.904 11.396 14.958zM68.604 65.042c.51-.583 1.001-1.182 1.474-1.796.069-.089.134-.181.201-.27.949-1.252 1.827-2.562 2.618-3.931l-.836-.484c-1.595 2.761-3.551 5.331-5.86 7.64s-4.879 4.265-7.64 5.86l.484.836c.002-.001.004-.003.006-.004 1.365-.789 2.671-1.664 3.92-2.61.091-.069.185-.136.276-.206.613-.473 1.211-.963 1.793-1.472.056-.049.109-.1.164-.149 1.15-1.018 2.237-2.105 3.255-3.256C68.507 65.147 68.557 65.096 68.604 65.042z"/><path fill="#8bb7f0" d="M40,55.5c-8.547,0-15.5-6.953-15.5-15.5S31.453,24.5,40,24.5S55.5,31.453,55.5,40 S48.547,55.5,40,55.5z"/><path fill="#4e7ab5" d="M40,25c8.271,0,15,6.729,15,15s-6.729,15-15,15s-15-6.729-15-15S31.729,25,40,25 M40,24 c-8.8,0-16,7.2-16,16s7.2,16,16,16s16-7.2,16-16S48.8,24,40,24L40,24z"/><path fill="#fff" d="M40,70c-16.5,0-30-13.5-30-30s13.5-30,30-30s30,13.5,30,30S56.5,70,40,70z"/><path fill="#f78f8f" d="M40,63.5c-13.178,0-23.5-10.322-23.5-23.5S26.822,16.5,40,16.5S63.5,26.822,63.5,40 S53.178,63.5,40,63.5z"/><path fill="#c74343" d="M40,17c12.897,0,23,10.103,23,23S52.897,63,40,63S17,52.897,17,40S27.103,17,40,17 M40,16 c-13.4,0-24,10.6-24,24s10.6,24,24,24s24-10.6,24-24S53.4,16,40,16L40,16z"/><path fill="#f4b5b5" d="M19.194,27.954L40,40L27.954,19.194C24.6,21.109,21.109,24.6,19.194,27.954z"/><path fill="#8bb7f0" d="M40,55.5c-8.547,0-15.5-6.953-15.5-15.5S31.453,24.5,40,24.5S55.5,31.453,55.5,40 S48.547,55.5,40,55.5z"/><path fill="#4e7ab5" d="M40,25c8.271,0,15,6.729,15,15s-6.729,15-15,15s-15-6.729-15-15S31.729,25,40,25 M40,24 c-8.8,0-16,7.2-16,16s7.2,16,16,16s16-7.2,16-16S48.8,24,40,24L40,24z"/><path fill="#9fcdff" d="M26.179,31.995L40,40l-8.002-13.823C29.887,27.404,27.406,29.884,26.179,31.995z"/><path fill="#f4b5b5" d="M60.806,52.046L40,40l12.046,20.806C55.4,58.891,58.891,55.4,60.806,52.046z"/><g><path fill="#f76d6d" d="M20.895 25.397c-.618.813-1.189 1.664-1.7 2.557l0 .001.834.483c2.002-3.508 4.901-6.407 8.409-8.409l-.483-.834c-.893.512-1.745 1.083-2.559 1.702-.029.022-.06.044-.089.066-1.631 1.253-3.091 2.713-4.345 4.344C20.939 25.336 20.918 25.367 20.895 25.397zM59.105 54.603c.618-.813 1.189-1.664 1.7-2.557l0-.001-.834-.483c-2.002 3.508-4.901 6.407-8.409 8.409l.483.834c.893-.512 1.745-1.083 2.559-1.702.029-.022.06-.044.089-.066 1.631-1.253 3.091-2.713 4.345-4.344C59.061 54.664 59.082 54.633 59.105 54.603z"/></g><path fill="#9fcdff" d="M53.823,48.003L40,40l8.002,13.823C50.113,52.596,52.596,50.113,53.823,48.003z"/><g><path fill="#7ca3ce" d="M27.034 32.493c1.314-2.261 3.198-4.145 5.46-5.46l-.496-.856c-.594.346-1.163.731-1.705 1.147-.005.004-.011.008-.016.012-.006.005-.012.009-.018.014-1.088.841-2.065 1.818-2.906 2.906-.006.007-.011.015-.016.022-.003.004-.006.009-.01.013-.416.542-.8 1.11-1.146 1.703-.001.001-.001.002-.002.003L27.034 32.493zM52.966 47.507c-1.314 2.261-3.198 4.145-5.46 5.46l.496.856c.594-.346 1.163-.731 1.705-1.147.005-.004.011-.008.016-.012.006-.005.012-.009.018-.014 1.088-.841 2.065-1.818 2.906-2.906.006-.007.011-.015.016-.022.003-.004.006-.009.01-.013.416-.542.8-1.11 1.146-1.703.001-.001.001-.002.002-.003L52.966 47.507z"/></g><path fill="#fff" d="M33.003 50.185L35.713 41.576 28.699 35.997 37.467 35.997 40.018 28.185 42.728 35.997 51.655 35.997 44.641 41.576 47.192 50.026 40.018 44.924z"/></svg>